<?xml version="1.0" encoding="utf-8"?>
<!-- Generator: Adobe Illustrator 25.2.3, SVG Export Plug-In . SVG Version: 6.00 Build 0)  -->
<svg version="1.1" id="Layer_1" xmlns="http://www.w3.org/2000/svg" xmlns:xlink="http://www.w3.org/1999/xlink" x="0px" y="0px"
	 viewBox="0 0 408.4 59" style="enable-background:new 0 0 408.4 59;" xml:space="preserve">
<style type="text/css">
	.st0{fill:url(#SVGID_1_);}
	.st1{fill:url(#SVGID_2_);}
	.st2{fill:url(#SVGID_3_);}
	.st3{fill:url(#SVGID_4_);}
	.st4{fill:url(#SVGID_5_);}
	.st5{fill:url(#SVGID_6_);}
	.st6{fill:url(#SVGID_7_);}
	.st7{fill:url(#SVGID_8_);}
	.st8{fill:url(#SVGID_9_);}
	.st9{fill:url(#SVGID_10_);}
	.st10{fill:none;}
	.st11{enable-background:new    ;}
	.st12{fill:none;stroke:#1B3E5B;stroke-width:0.5;stroke-miterlimit:10;}
</style>
<g>
	
		<linearGradient id="SVGID_1_" gradientUnits="userSpaceOnUse" x1="0.1488" y1="29.9569" x2="233.743" y2="25.5938" gradientTransform="matrix(1 0 0 -1 0 60.6)">
		<stop  offset="0" style="stop-color:#00B5E4"/>
		<stop  offset="0.5077" style="stop-color:#056592"/>
		<stop  offset="1" style="stop-color:#6CA843"/>
	</linearGradient>
	<path class="st0" d="M18.7,35.2v0.1c0,5.2-3.5,8.1-9.2,8.1c-5.9,0-9.5-3.2-9.5-8.8V27c0-5.6,3.6-8.8,9.5-8.8c5.6,0,9.1,2.9,9.1,8.1
		v0.1h-2.9v-0.1c0-3.5-2.4-5.5-6.3-5.5c-4.1,0-6.6,2.3-6.6,6.3v7.6c0,4,2.5,6.3,6.5,6.3c3.9,0,6.3-2.1,6.3-5.6v-0.1h3.1V35.2z"/>
	
		<linearGradient id="SVGID_2_" gradientUnits="userSpaceOnUse" x1="0.1539" y1="30.2296" x2="233.7481" y2="25.8664" gradientTransform="matrix(1 0 0 -1 0 60.6)">
		<stop  offset="0" style="stop-color:#00B5E4"/>
		<stop  offset="0.5077" style="stop-color:#056592"/>
		<stop  offset="1" style="stop-color:#6CA843"/>
	</linearGradient>
	<path class="st1" d="M25.4,18.6h2.9v22h12.9v2.6H25.4V18.6z"/>
	
		<linearGradient id="SVGID_3_" gradientUnits="userSpaceOnUse" x1="0.165" y1="30.8228" x2="233.7592" y2="26.4596" gradientTransform="matrix(1 0 0 -1 0 60.6)">
		<stop  offset="0" style="stop-color:#00B5E4"/>
		<stop  offset="0.5077" style="stop-color:#056592"/>
		<stop  offset="1" style="stop-color:#6CA843"/>
	</linearGradient>
	<path class="st2" d="M65.3,34.6c0,5.6-3.6,8.8-9.6,8.8c-5.9,0-9.5-3.2-9.5-8.8V27c0-5.6,3.6-8.8,9.6-8.8c5.9,0,9.5,3.1,9.5,8.8
		V34.6z M62.5,27c0-4-2.5-6.3-6.6-6.3c-4.2,0-6.6,2.3-6.6,6.3v7.6c0,4,2.5,6.3,6.6,6.3c4.2,0,6.6-2.3,6.6-6.3V27z"/>
	
		<linearGradient id="SVGID_4_" gradientUnits="userSpaceOnUse" x1="0.1707" y1="31.1266" x2="233.7648" y2="26.7635" gradientTransform="matrix(1 0 0 -1 0 60.6)">
		<stop  offset="0" style="stop-color:#00B5E4"/>
		<stop  offset="0.5077" style="stop-color:#056592"/>
		<stop  offset="1" style="stop-color:#6CA843"/>
	</linearGradient>
	<path class="st3" d="M90.5,18.6V35c0,5.4-3.5,8.5-9.1,8.5c-5.6,0-9.1-3-9.1-8.5V18.6h2.9V35c0,3.8,2.4,6,6.3,6c3.9,0,6.3-2.2,6.3-6
		V18.6H90.5z"/>
	
		<linearGradient id="SVGID_5_" gradientUnits="userSpaceOnUse" x1="0.1802" y1="31.6369" x2="233.7743" y2="27.2738" gradientTransform="matrix(1 0 0 -1 0 60.6)">
		<stop  offset="0" style="stop-color:#00B5E4"/>
		<stop  offset="0.5077" style="stop-color:#056592"/>
		<stop  offset="1" style="stop-color:#6CA843"/>
	</linearGradient>
	<path class="st4" d="M116.1,34.4c0,5.6-3.6,8.7-9.6,8.7h-8.8V18.6h8.8c5.9,0,9.5,3.1,9.5,8.6v7.2H116.1z M113.1,27.2
		c0-3.9-2.5-6.2-6.6-6.2h-6v19.5h5.9c4.2,0,6.6-2.3,6.6-6.2v-7.2H113.1z"/>
	
		<linearGradient id="SVGID_6_" gradientUnits="userSpaceOnUse" x1="0.2798" y1="36.9692" x2="233.8739" y2="32.6061" gradientTransform="matrix(1 0 0 -1 0 60.6)">
		<stop  offset="0" style="stop-color:#00B5E4"/>
		<stop  offset="0.5077" style="stop-color:#056592"/>
		<stop  offset="1" style="stop-color:#6CA843"/>
	</linearGradient>
	<path class="st5" d="M120.6,18.6h3.2l7.7,21l11-30.3h2.9l-12.2,33.9h-3.4L120.6,18.6z"/>
	
		<linearGradient id="SVGID_7_" gradientUnits="userSpaceOnUse" x1="0.1967" y1="32.5177" x2="233.7908" y2="28.1546" gradientTransform="matrix(1 0 0 -1 0 60.6)">
		<stop  offset="0" style="stop-color:#00B5E4"/>
		<stop  offset="0.5077" style="stop-color:#056592"/>
		<stop  offset="1" style="stop-color:#6CA843"/>
	</linearGradient>
	<path class="st6" d="M147.9,18.6h2.9v24.5h-2.9V18.6z"/>
	
		<linearGradient id="SVGID_8_" gradientUnits="userSpaceOnUse" x1="0.2014" y1="32.7711" x2="233.7955" y2="28.408" gradientTransform="matrix(1 0 0 -1 0 60.6)">
		<stop  offset="0" style="stop-color:#00B5E4"/>
		<stop  offset="0.5077" style="stop-color:#056592"/>
		<stop  offset="1" style="stop-color:#6CA843"/>
	</linearGradient>
	<path class="st7" d="M158.1,18.6h9.8c4.7,0,7.8,2.4,7.8,7.6c0,4-1.7,6.3-4.6,7.2l4.7,9.8h-3.4l-4.4-9.2h-0.3h-6.9v9.2h-2.9V18.6
		H158.1z M161,31.3h6.8c3,0,4.9-1.5,4.9-5.1s-2-5-4.9-5H161V31.3z"/>
	
		<linearGradient id="SVGID_9_" gradientUnits="userSpaceOnUse" x1="0.2142" y1="33.4554" x2="233.8083" y2="29.0923" gradientTransform="matrix(1 0 0 -1 0 60.6)">
		<stop  offset="0" style="stop-color:#00B5E4"/>
		<stop  offset="0.5077" style="stop-color:#056592"/>
		<stop  offset="1" style="stop-color:#6CA843"/>
	</linearGradient>
	<path class="st8" d="M197.8,35.3v-2.2h-7.7v-2.6h10.6V43h-2.2l-0.3-2.6c-1.4,1.8-3.9,2.9-7.2,2.9c-5.6,0-8.9-3.1-8.9-8.8v-7.6
		c0-5.9,3.6-8.8,9.5-8.8c5.5,0,9.1,2.6,9.1,7.6v0.2h-2.9v-0.2c0-3.3-2.4-5.1-6.3-5.1c-4.1,0-6.6,2.2-6.6,6.4v7.6
		c0,4,2.5,6.3,6.5,6.3C195.5,40.9,197.8,38.8,197.8,35.3z"/>
	
		<linearGradient id="SVGID_10_" gradientUnits="userSpaceOnUse" x1="0.2188" y1="33.701" x2="233.8129" y2="29.338" gradientTransform="matrix(1 0 0 -1 0 60.6)">
		<stop  offset="0" style="stop-color:#00B5E4"/>
		<stop  offset="0.5077" style="stop-color:#056592"/>
		<stop  offset="1" style="stop-color:#6CA843"/>
	</linearGradient>
	<path class="st9" d="M228.1,43.1h-3.1l-2.4-6.3h-11l-2.4,6.3h-2.9l9-24.5h3.5L228.1,43.1z M212.4,34.3h9.5l-4.7-12.6L212.4,34.3z"
		/>
</g>
<rect x="191.2" y="25.9" class="st10" width="291" height="16.3"/>
<g class="st11">
	<path d="M265.1,34.4h-5.6l-1.2,2.6h-1.5l4.8-10.5h1.5l4.8,10.5h-1.6L265.1,34.4z M264.6,33.2l-2.3-5.1l-2.3,5.1H264.6z"/>
	<path d="M272.5,35.8l0.6-1.2c0.8,0.7,2.1,1.2,3.5,1.2c1.8,0,2.6-0.7,2.6-1.6c0-2.6-6.4-0.9-6.4-4.8c0-1.6,1.3-3,4-3
		c1.2,0,2.5,0.3,3.4,0.9l-0.5,1.2c-0.9-0.6-1.9-0.9-2.9-0.9c-1.8,0-2.5,0.8-2.5,1.7c0,2.6,6.4,1,6.4,4.8c0,1.6-1.3,3-4.1,3
		C274.9,37.2,273.3,36.6,272.5,35.8z"/>
	<path d="M287,36.6c-0.4,0.4-1.1,0.6-1.7,0.6c-1.6,0-2.5-0.9-2.5-2.5v-4.4h-1.3v-1.2h1.3v-1.7h1.4v1.7h2.3v1.2h-2.3v4.3
		c0,0.9,0.5,1.3,1.2,1.3c0.4,0,0.8-0.1,1.1-0.4L287,36.6z"/>
	<path d="M295.6,33.5h-6.4c0.2,1.4,1.3,2.3,2.9,2.3c0.9,0,1.7-0.3,2.3-1l0.8,0.9c-0.7,0.8-1.8,1.3-3.1,1.3c-2.6,0-4.3-1.7-4.3-4.1
		c0-2.4,1.7-4,4-4s3.9,1.6,3.9,4.1C295.7,33.2,295.6,33.4,295.6,33.5z M289.2,32.5h5.1c-0.2-1.3-1.2-2.3-2.5-2.3
		C290.3,30.2,289.3,31.2,289.2,32.5z"/>
	<path d="M309.5,29.1l-3,7.9h-1.4l-2.3-6l-2.3,6h-1.4l-3-7.9h1.4l2.3,6.3l2.4-6.3h1.2l2.4,6.4l2.4-6.4H309.5z"/>
	<path d="M317,32.2V37h-1.4v-1c-0.5,0.7-1.4,1.1-2.6,1.1c-1.8,0-2.9-1-2.9-2.3c0-1.3,0.8-2.3,3.2-2.3h2.3v-0.3
		c0-1.2-0.7-1.9-2.1-1.9c-0.9,0-1.9,0.3-2.5,0.9l-0.6-1.1c0.8-0.7,2-1,3.3-1C315.8,29,317,30.1,317,32.2z M315.6,34.6v-1.1h-2.2
		c-1.4,0-1.8,0.6-1.8,1.2c0,0.8,0.7,1.3,1.8,1.3C314.4,36,315.2,35.5,315.6,34.6z"/>
	<path d="M324,29v1.4c-0.1,0-0.2,0-0.3,0c-1.5,0-2.5,0.9-2.5,2.7v4h-1.4v-7.9h1.4v1.3C321.6,29.5,322.6,29,324,29z"/>
	<path d="M330.5,36.6c-0.4,0.4-1.1,0.6-1.7,0.6c-1.6,0-2.5-0.9-2.5-2.5v-4.4h-1.3v-1.2h1.3v-1.7h1.4v1.7h2.3v1.2h-2.3v4.3
		c0,0.9,0.5,1.3,1.2,1.3c0.4,0,0.8-0.1,1.1-0.4L330.5,36.6z"/>
	<path d="M335.7,31.8c0-3.1,2.4-5.4,5.6-5.4c1.6,0,3,0.6,4,1.6l-1,0.9c-0.8-0.9-1.8-1.2-3-1.2c-2.4,0-4.1,1.7-4.1,4
		c0,2.3,1.8,4,4.1,4c1.2,0,2.1-0.4,3-1.3l1,0.9c-1,1.1-2.4,1.7-4,1.7C338,37.2,335.7,34.9,335.7,31.8z"/>
	<path d="M346.1,33.1c0-2.4,1.8-4,4.1-4c2.4,0,4.1,1.7,4.1,4s-1.7,4.1-4.1,4.1C347.9,37.1,346.1,35.4,346.1,33.1z M352.9,33.1
		c0-1.7-1.1-2.8-2.7-2.8c-1.5,0-2.7,1.1-2.7,2.8c0,1.7,1.2,2.8,2.7,2.8C351.8,35.9,352.9,34.8,352.9,33.1z"/>
	<path d="M369.6,32.5V37h-1.4v-4.4c0-1.6-0.8-2.3-2.1-2.3c-1.4,0-2.4,0.9-2.4,2.6V37h-1.4v-4.4c0-1.6-0.8-2.3-2.1-2.3
		c-1.4,0-2.4,0.9-2.4,2.6V37h-1.4v-7.9h1.4v1.2c0.6-0.8,1.5-1.3,2.7-1.3c1.2,0,2.2,0.5,2.8,1.5c0.6-0.9,1.7-1.5,3.1-1.5
		C368.2,29,369.6,30.1,369.6,32.5z"/>
	<path d="M380.4,33.1c0,2.4-1.7,4.1-4,4.1c-1.1,0-2.1-0.4-2.8-1.3V40h-1.4V29.1h1.4v1.3c0.6-0.9,1.7-1.3,2.8-1.3
		C378.8,29,380.4,30.6,380.4,33.1z M379,33.1c0-1.7-1.2-2.8-2.7-2.8c-1.5,0-2.7,1.1-2.7,2.8c0,1.7,1.2,2.8,2.7,2.8
		C377.8,35.9,379,34.8,379,33.1z"/>
	<path d="M388.7,32.2V37h-1.4v-1c-0.5,0.7-1.4,1.1-2.6,1.1c-1.8,0-2.9-1-2.9-2.3c0-1.3,0.8-2.3,3.2-2.3h2.3v-0.3
		c0-1.2-0.7-1.9-2.1-1.9c-0.9,0-1.9,0.3-2.5,0.9L382,30c0.8-0.7,2-1,3.3-1C387.4,29,388.7,30.1,388.7,32.2z M387.2,34.6v-1.1H385
		c-1.4,0-1.8,0.6-1.8,1.2c0,0.8,0.7,1.3,1.8,1.3C386,36,386.9,35.5,387.2,34.6z"/>
	<path d="M398.9,32.5V37h-1.4v-4.4c0-1.6-0.8-2.3-2.1-2.3c-1.5,0-2.5,0.9-2.5,2.6V37h-1.4v-7.9h1.4v1.2c0.6-0.8,1.6-1.3,2.9-1.3
		C397.5,29,398.9,30.1,398.9,32.5z"/>
	<path d="M408.4,29.1l-3.9,8.7c-0.7,1.7-1.6,2.2-2.8,2.2c-0.8,0-1.5-0.3-2-0.7l0.6-1.1c0.4,0.4,0.9,0.6,1.4,0.6
		c0.7,0,1.1-0.3,1.5-1.2l0.3-0.6l-3.5-7.9h1.5l2.8,6.4l2.7-6.4H408.4z"/>
</g>
<line class="st12" x1="243.9" y1="0" x2="243.9" y2="59"/>
<g id="Layer_2_1_">
</g>
</svg>
